<svg id="Capa_1" data-name="Capa 1" xmlns="http://www.w3.org/2000/svg" viewBox="0 0 114.7 115.82"><defs><style>.cls-1{fill:#fff;stroke:#fff;stroke-miterlimit:10;stroke-width:5.82px;}.cls-2{fill:#24404e;}.cls-3{fill:#63af40;}.cls-4{fill:#c6db99;}</style></defs><title>IF</title><path class="cls-1" d="M58.09,119c-11.07.08-19.66-1.93-27.82-5.83a16.7,16.7,0,0,1-4.86-4A54.58,54.58,0,0,1,15.07,92.34a71.08,71.08,0,0,1-5-18.36,56.67,56.67,0,0,1,8.73-38.83,71.31,71.31,0,0,1,9-11.17A60.67,60.67,0,0,1,50.42,9.21a2.08,2.08,0,0,1,2.45.44A47.2,47.2,0,0,1,64,24.56a76.22,76.22,0,0,1,6.22,18.31,59.42,59.42,0,0,1,1.09,8.62c0,.42.06.54.53.41a67.91,67.91,0,0,1,19.22-2.7A60,60,0,0,1,117.39,55a1.44,1.44,0,0,1,.92,1.39,39.17,39.17,0,0,1-.59,10.93,67.84,67.84,0,0,1-20,36.3,55.5,55.5,0,0,1-27.46,14A65.52,65.52,0,0,1,58.09,119Zm0,0c-11.07.08-19.66-1.93-27.82-5.83a16.7,16.7,0,0,1-4.86-4A54.58,54.58,0,0,1,15.07,92.34a71.08,71.08,0,0,1-5-18.36,56.67,56.67,0,0,1,8.73-38.83,71.31,71.31,0,0,1,9-11.17A60.67,60.67,0,0,1,50.42,9.21a2.08,2.08,0,0,1,2.45.44A47.2,47.2,0,0,1,64,24.56a76.22,76.22,0,0,1,6.22,18.31,59.42,59.42,0,0,1,1.09,8.62c0,.42.06.54.53.41a67.91,67.91,0,0,1,19.22-2.7A60,60,0,0,1,117.39,55a1.44,1.44,0,0,1,.92,1.39,39.17,39.17,0,0,1-.59,10.93,67.84,67.84,0,0,1-20,36.3,55.5,55.5,0,0,1-27.46,14A65.52,65.52,0,0,1,58.09,119Zm.36-61.23a62.39,62.39,0,0,1,7.34-3.69c.17-.07.3-.14.29-.35a9.1,9.1,0,0,0-.16-2.31l-1.84,1.16L58.45,56.2a.69.69,0,0,0-.18.05L41.95,66.62a1.16,1.16,0,0,0-.54.81c-.4,1.81-.82,3.61-1.23,5.42-.27,1.2-.52,2.4-.8,3.69a1.62,1.62,0,0,0,.21-.19A66.71,66.71,0,0,1,45.14,69a59.22,59.22,0,0,1,6.33-6.21A64.79,64.79,0,0,1,58.45,57.77ZM65.57,108c-.15-.15-.36-.09-.54-.14l-17.68-4a.9.9,0,0,0-.76.13l-9.36,6c-.12.07-.33.11-.29.28s.26.17.43.17a2.16,2.16,0,0,0,.27.14A51.19,51.19,0,0,0,53,113.74,66.12,66.12,0,0,0,64,113.3a58,58,0,0,0,11.81-2.67c.14,0,.34,0,.38-.24l-4.5-1ZM52.87,17.57c.06-.13,0-.19-.13-.23s-.19.32-.23.49Q51,24.4,49.57,31L44.26,54.84,43.32,59l.56-.32,7.71-4.9,7-4.48c2-1.28,4.07-2.57,6.12-3.84a.69.69,0,0,0,.39-.85,67.19,67.19,0,0,0-3.61-12.33,49.81,49.81,0,0,0-7.75-13.89c-.26-.31-.44-.72-.86-.87ZM89.46,93.67c-.14-.13-.32-.08-.48-.12l-17.3-3.9a3.43,3.43,0,0,0-3,.31c-4.29,2.86-8.68,5.56-13,8.33l-2,1.29c.32.1.52.17.71.21l11.83,2.62,8.25,1.82c3.21.72,6.42,1.43,9.62,2.19a1.88,1.88,0,0,0,1.54-.28,52.55,52.55,0,0,0,11.58-9.52c.94-1,.95-1-.38-1.34C94.36,94.74,91.91,94.21,89.46,93.67ZM94.29,89c2.3.52,4.61,1,6.9,1.56a.92.92,0,0,0,1.19-.44c4.9-7.52,8.63-15.51,10.17-24.42a14.83,14.83,0,0,0,.32-3.61c-.21,0-.36.1-.52.2L94.26,73.77,80,82.8,76.54,85ZM62.57,61.56l-.32.11-.45.24A52.4,52.4,0,0,0,48.89,72.66,58.87,58.87,0,0,0,41.1,84a63.68,63.68,0,0,0-6.75,18.42c-.18,1-.29,2-.46,3.13l4-2.53L55.34,91.89A1.37,1.37,0,0,0,56,91c.45-2.08.92-4.15,1.39-6.23L61.73,65.4C62,64.15,62.28,62.9,62.57,61.56Zm-45.78-9C12.07,67,16.21,89.23,27.57,103.62c.19-.86.36-1.66.54-2.45Q30.6,90,33.1,78.86a1.07,1.07,0,0,0-.16-.89c-1.81-2.83-3.6-5.68-5.4-8.52L19,56Zm45.8,34.72,2.94-1.87,13-8.23a1,1,0,0,0,.46-.69C80,71.64,81.11,66.8,82.2,62c.49-2.2,1-4.4,1.45-6.6.06-.29.09-.45-.29-.4-.92.13-1.84.23-2.75.38A60.4,60.4,0,0,0,69.5,58.25a.87.87,0,0,0-.62.7c-.37,1.69-.75,3.37-1.13,5.05L63.44,83.35C63.16,84.6,62.9,85.85,62.58,87.28ZM34.93,70.48c.07-.23.11-.33.13-.43q2-8.84,4-17.69a1.12,1.12,0,0,0-.16-.94q-2-3.07-3.92-6.16-3.76-5.92-7.51-11.85c-.26-.41-.39-.53-.77-.05a60,60,0,0,0-7.29,11.88.73.73,0,0,0,0,.81c.63,1,1.24,1.92,1.85,2.89l8.26,13C31.29,64.77,33.08,67.57,34.93,70.48Zm50.59,2.23,23.83-15.14c-.23-.11-.32-.16-.42-.19A56.3,56.3,0,0,0,90,54.55c-.37,0-.49.14-.56.5-.82,3.72-1.66,7.43-2.5,11.15C86.48,68.31,86,70.43,85.52,72.71ZM40.87,44,47,16.6l-.65.3A56.29,56.29,0,0,0,31.55,27.83a.86.86,0,0,0-.15,1.31c2.27,3.52,4.5,7.06,6.75,10.59C39,41.1,39.9,42.46,40.87,44Z" transform="translate(-6.65 -6.09)"/><path class="cls-2" d="M58.09,119c-11.07.08-19.66-1.93-27.82-5.83a16.7,16.7,0,0,1-4.86-4A54.58,54.58,0,0,1,15.07,92.34a71.08,71.08,0,0,1-5-18.36,56.67,56.67,0,0,1,8.73-38.83,71.31,71.31,0,0,1,9-11.17A60.67,60.67,0,0,1,50.42,9.21a2.08,2.08,0,0,1,2.45.44A47.2,47.2,0,0,1,64,24.56a76.22,76.22,0,0,1,6.22,18.31,59.42,59.42,0,0,1,1.09,8.62c0,.42.06.54.53.41a67.91,67.91,0,0,1,19.22-2.7A60,60,0,0,1,117.39,55a1.44,1.44,0,0,1,.92,1.39,39.17,39.17,0,0,1-.59,10.93,67.84,67.84,0,0,1-20,36.3,55.5,55.5,0,0,1-27.46,14A65.52,65.52,0,0,1,58.09,119Zm0,0c-11.07.08-19.66-1.93-27.82-5.83a16.7,16.7,0,0,1-4.86-4A54.58,54.58,0,0,1,15.07,92.34a71.08,71.08,0,0,1-5-18.36,56.67,56.67,0,0,1,8.73-38.83,71.31,71.31,0,0,1,9-11.17A60.67,60.67,0,0,1,50.42,9.21a2.08,2.08,0,0,1,2.45.44A47.2,47.2,0,0,1,64,24.56a76.22,76.22,0,0,1,6.22,18.31,59.42,59.42,0,0,1,1.09,8.62c0,.42.06.54.53.41a67.91,67.91,0,0,1,19.22-2.7A60,60,0,0,1,117.39,55a1.44,1.44,0,0,1,.92,1.39,39.17,39.17,0,0,1-.59,10.93,67.84,67.84,0,0,1-20,36.3,55.5,55.5,0,0,1-27.46,14A65.52,65.52,0,0,1,58.09,119Zm.36-61.23a62.39,62.39,0,0,1,7.34-3.69c.17-.07.3-.14.29-.35a9.1,9.1,0,0,0-.16-2.31l-1.84,1.16L58.45,56.2a.69.69,0,0,0-.18.05L41.95,66.62a1.16,1.16,0,0,0-.54.81c-.4,1.81-.82,3.61-1.23,5.42-.27,1.2-.52,2.4-.8,3.69a1.62,1.62,0,0,0,.21-.19A66.71,66.71,0,0,1,45.14,69a59.22,59.22,0,0,1,6.33-6.21A64.79,64.79,0,0,1,58.45,57.77ZM65.57,108c-.15-.15-.36-.09-.54-.14l-17.68-4a.9.9,0,0,0-.76.13l-9.36,6c-.12.07-.33.11-.29.28s.26.17.43.17a2.16,2.16,0,0,0,.27.14A51.19,51.19,0,0,0,53,113.74,66.12,66.12,0,0,0,64,113.3a58,58,0,0,0,11.81-2.67c.14,0,.34,0,.38-.24l-4.5-1ZM52.87,17.57c.06-.13,0-.19-.13-.23s-.19.32-.23.49Q51,24.4,49.57,31L44.26,54.84,43.32,59l.56-.32,7.71-4.9,7-4.48c2-1.28,4.07-2.57,6.12-3.84a.69.69,0,0,0,.39-.85,67.19,67.19,0,0,0-3.61-12.33,49.81,49.81,0,0,0-7.75-13.89c-.26-.31-.44-.72-.86-.87ZM89.46,93.67c-.14-.13-.32-.08-.48-.12l-17.3-3.9a3.43,3.43,0,0,0-3,.31c-4.29,2.86-8.68,5.56-13,8.33l-2,1.29c.32.1.52.17.71.21l11.83,2.62,8.25,1.82c3.21.72,6.42,1.43,9.62,2.19a1.88,1.88,0,0,0,1.54-.28,52.55,52.55,0,0,0,11.58-9.52c.94-1,.95-1-.38-1.34C94.36,94.74,91.91,94.21,89.46,93.67ZM94.29,89c2.3.52,4.61,1,6.9,1.56a.92.92,0,0,0,1.19-.44c4.9-7.52,8.63-15.51,10.17-24.42a14.83,14.83,0,0,0,.32-3.61c-.21,0-.36.1-.52.2L94.26,73.77,80,82.8,76.54,85ZM62.57,61.56l-.32.11-.45.24A52.4,52.4,0,0,0,48.89,72.66,58.87,58.87,0,0,0,41.1,84a63.68,63.68,0,0,0-6.75,18.42c-.18,1-.29,2-.46,3.13l4-2.53L55.34,91.89A1.37,1.37,0,0,0,56,91c.45-2.08.92-4.15,1.39-6.23L61.73,65.4C62,64.15,62.28,62.9,62.57,61.56Zm-45.78-9C12.07,67,16.21,89.23,27.57,103.62c.19-.86.36-1.66.54-2.45Q30.6,90,33.1,78.86a1.07,1.07,0,0,0-.16-.89c-1.81-2.83-3.6-5.68-5.4-8.52L19,56Zm45.8,34.72,2.94-1.87,13-8.23a1,1,0,0,0,.46-.69C80,71.64,81.11,66.8,82.2,62c.49-2.2,1-4.4,1.45-6.6.06-.29.09-.45-.29-.4-.92.13-1.84.23-2.75.38A60.4,60.4,0,0,0,69.5,58.25a.87.87,0,0,0-.62.7c-.37,1.69-.75,3.37-1.13,5.05L63.44,83.35C63.16,84.6,62.9,85.85,62.58,87.28ZM34.93,70.48c.07-.23.11-.33.13-.43q2-8.84,4-17.69a1.12,1.12,0,0,0-.16-.94q-2-3.07-3.92-6.16-3.76-5.92-7.51-11.85c-.26-.41-.39-.53-.77-.05a60,60,0,0,0-7.29,11.88.73.73,0,0,0,0,.81c.63,1,1.24,1.92,1.85,2.89l8.26,13C31.29,64.77,33.08,67.57,34.93,70.48Zm50.59,2.23,23.83-15.14c-.23-.11-.32-.16-.42-.19A56.3,56.3,0,0,0,90,54.55c-.37,0-.49.14-.56.5-.82,3.72-1.66,7.43-2.5,11.15C86.48,68.31,86,70.43,85.52,72.71ZM40.87,44,47,16.6l-.65.3A56.29,56.29,0,0,0,31.55,27.83a.86.86,0,0,0-.15,1.31c2.27,3.52,4.5,7.06,6.75,10.59C39,41.1,39.9,42.46,40.87,44Z" transform="translate(-6.65 -6.09)"/><path class="cls-3" d="M62.57,61.56c-.29,1.33-.55,2.58-.83,3.83L57.42,84.75C57,86.83,56.49,88.9,56,91a1.37,1.37,0,0,1-.69.91L37.88,103l-4,2.53c.17-1.15.28-2.15.46-3.13A63.68,63.68,0,0,1,41.1,84a58.87,58.87,0,0,1,7.79-11.31A52.4,52.4,0,0,1,61.8,61.91l.45-.24Z" transform="translate(-6.65 -6.09)"/><path class="cls-3" d="M16.79,52.55,19,56l8.54,13.45c1.8,2.84,3.59,5.68,5.4,8.52a1.07,1.07,0,0,1,.16.89q-2.51,11.15-5,22.31c-.18.79-.35,1.59-.54,2.45C16.21,89.23,12.07,67,16.79,52.55Z" transform="translate(-6.65 -6.09)"/><path class="cls-3" d="M62.58,87.28c.31-1.43.58-2.68.86-3.93L67.75,64c.38-1.68.76-3.37,1.13-5.05a.87.87,0,0,1,.62-.7,60.4,60.4,0,0,1,11.11-2.91c.91-.15,1.83-.25,2.75-.38.38-.05.35.11.29.4-.49,2.2-1,4.4-1.45,6.6C81.11,66.8,80,71.64,78.94,76.49a1,1,0,0,1-.46.69l-13,8.23Z" transform="translate(-6.65 -6.09)"/><path class="cls-3" d="M34.93,70.48c-1.86-2.91-3.65-5.71-5.43-8.51l-8.26-13C20.63,48,20,47,19.39,46.06a.73.73,0,0,1,0-.81,60,60,0,0,1,7.29-11.88c.38-.48.51-.36.77.05q3.75,5.93,7.51,11.85,2,3.08,3.92,6.16a1.12,1.12,0,0,1,.16.94q-2,8.84-4,17.69C35,70.15,35,70.25,34.93,70.48Z" transform="translate(-6.65 -6.09)"/><path class="cls-3" d="M94.29,89,76.54,85,80,82.8l14.24-9,18.08-11.5c.16-.1.3-.24.52-.2-1.32,2.48-2.68,4.94-4.14,7.35A121.19,121.19,0,0,1,95.94,87.07,11.85,11.85,0,0,0,94.29,89Z" transform="translate(-6.65 -6.09)"/><path class="cls-3" d="M58.58,49.35l-7,4.48-7.71,4.9-.56.32.94-4.21L49.57,31Q51,24.4,52.51,17.82c0-.17,0-.39.23-.49,0,.09,0,.2.13.23h0a7.63,7.63,0,0,0,.51,1.88,138.56,138.56,0,0,1,3.72,16.17c.57,3.49,1,7,1.26,10.53A21.74,21.74,0,0,0,58.58,49.35Z" transform="translate(-6.65 -6.09)"/><path class="cls-3" d="M74.46,104.24l-8.25-1.82L54.38,99.8c-.2,0-.39-.12-.71-.21l2-1.29c4.35-2.76,8.74-5.47,13-8.33a3.43,3.43,0,0,1,3-.31L89,93.55c.16,0,.34,0,.48.12A69.72,69.72,0,0,1,78.32,102C77,102.74,75.75,103.49,74.46,104.24Z" transform="translate(-6.65 -6.09)"/><path class="cls-3" d="M85.52,72.71c.5-2.28,1-4.4,1.43-6.5.83-3.72,1.68-7.43,2.5-11.15.08-.36.19-.5.56-.5a56.3,56.3,0,0,1,18.92,2.83c.1,0,.19.09.42.19Z" transform="translate(-6.65 -6.09)"/><path class="cls-3" d="M40.87,44c-1-1.52-1.85-2.88-2.72-4.25-2.25-3.53-4.47-7.08-6.75-10.59a.86.86,0,0,1,.15-1.31A56.29,56.29,0,0,1,46.33,16.9l.65-.3Z" transform="translate(-6.65 -6.09)"/><path class="cls-4" d="M94.29,89a11.85,11.85,0,0,1,1.65-1.92,121.19,121.19,0,0,0,12.79-17.64c1.45-2.41,2.82-4.87,4.14-7.35a14.83,14.83,0,0,1-.32,3.61c-1.54,8.91-5.27,16.91-10.17,24.42a.92.92,0,0,1-1.19.44C98.9,90,96.59,89.5,94.29,89Z" transform="translate(-6.65 -6.09)"/><path class="cls-4" d="M58.58,49.35a21.74,21.74,0,0,1-.22-3.21c-.26-3.53-.69-7-1.26-10.53a138.56,138.56,0,0,0-3.72-16.17,7.63,7.63,0,0,1-.51-1.88c.42.16.6.56.86.87a49.81,49.81,0,0,1,7.75,13.89,67.19,67.19,0,0,1,3.61,12.33.69.69,0,0,1-.39.85C62.65,46.77,60.61,48.06,58.58,49.35Z" transform="translate(-6.65 -6.09)"/><path class="cls-4" d="M74.46,104.24c1.29-.76,2.58-1.5,3.86-2.27a69.72,69.72,0,0,0,11.14-8.3c2.45.54,4.9,1.07,7.35,1.62,1.33.3,1.32.31.38,1.34a52.55,52.55,0,0,1-11.58,9.52,1.88,1.88,0,0,1-1.54.28C80.88,105.67,77.67,105,74.46,104.24Z" transform="translate(-6.65 -6.09)"/><path class="cls-3" d="M37.35,110.48c-.17,0-.38,0-.43-.17s.18-.21.29-.28l9.36-6a.9.9,0,0,1,.76-.13l17.68,4c.18,0,.39,0,.54.14a1.66,1.66,0,0,1-.23.12,54.55,54.55,0,0,1-16.9,3.09,47.46,47.46,0,0,1-8-.38C39.44,110.71,38.39,110.61,37.35,110.48Z" transform="translate(-6.65 -6.09)"/><path class="cls-4" d="M37.35,110.48c1,.13,2.09.23,3.13.39a47.46,47.46,0,0,0,8,.38,54.55,54.55,0,0,0,16.9-3.09,1.66,1.66,0,0,0,.23-.12l6.17,1.34,4.5,1c0,.22-.24.19-.38.24A58,58,0,0,1,64,113.3a66.12,66.12,0,0,1-11.07.44,51.19,51.19,0,0,1-15.36-3.12A2.16,2.16,0,0,1,37.35,110.48Z" transform="translate(-6.65 -6.09)"/><path class="cls-3" d="M58.45,57.77a64.79,64.79,0,0,0-7,5A59.22,59.22,0,0,0,45.14,69a66.71,66.71,0,0,0-5.54,7.32,1.62,1.62,0,0,1-.21.19c.28-1.29.53-2.49.8-3.69.4-1.81.83-3.61,1.23-5.42a1.16,1.16,0,0,1,.54-.81L58.27,56.25a.69.69,0,0,1,.18-.05Z" transform="translate(-6.65 -6.09)"/><path class="cls-4" d="M58.45,57.77V56.2l5.64-3.64,1.84-1.16a9.1,9.1,0,0,1,.16,2.31c0,.21-.12.28-.29.35A62.39,62.39,0,0,0,58.45,57.77Z" transform="translate(-6.65 -6.09)"/><path class="cls-4" d="M52.87,17.57c-.12,0-.11-.14-.13-.23S52.93,17.43,52.87,17.57Z" transform="translate(-6.65 -6.09)"/></svg>